PathFileType	4	(X/Y/Z)	Patient4_TMGait_0pt2_01_left_24.trc.trc
DataRate	CameraRate	NumFrames	NumMarkers	Units	OrigDataRate	OrigDataStartFrame	OrigNumFrames
44.871794871795	44.871794871795	4	33	mm	44.871794871795	106	       141
Frame#	Time	Sacral			L.Shoulder			Chest			R.Shoulder			Neck			R.ASIS			L.ASIS			R.Thigh.Superior			R.Thigh.Lateral			R.Thigh.Inferior			R.Patella			L.Thigh.Superior			L.Thigh.Lateral			L.Thigh.Inferior			L.Patella			L.Shank.Superior			L.Shank.Lateral			L.Shank.Inferior			R.Shank.Superior			R.Shank.Lateral			R.Shank.Inferior			R.Heel			R.Midfoot.Superior			R.Midfoot.Lateral			R.Toe			L.Heel			L.Midfoot.Lateral			L.Midfoot.Superior			L.Toe			L.Elbow			L.Wrist			R.Elbow			R.Wrist			
		X1	Y1	Z1	X2	Y2	Z2	X3	Y3	Z3	X4	Y4	Z4	X5	Y5	Z5	X6	Y6	Z6	X7	Y7	Z7	X8	Y8	Z8	X9	Y9	Z9	X10	Y10	Z10	X11	Y11	Z11	X12	Y12	Z12	X13	Y13	Z13	X14	Y14	Z14	X15	Y15	Z15	X16	Y16	Z16	X17	Y17	Z17	X18	Y18	Z18	X19	Y19	Z19	X20	Y20	Z20	X21	Y21	Z21	X22	Y22	Z22	X23	Y23	Z23	X24	Y24	Z24	X25	Y25	Z25	X26	Y26	Z26	X27	Y27	Z27	X28	Y28	Z28	X29	Y29	Z29	X30	Y30	Z30	X31	Y31	Z31	X32	Y32	Z32	X33	Y33	Z33	

106	57.290000000000	837.675985169347	986.463672584219	568.574138412699	986.361190332564	1408.490592266907	348.489436204207	1106.302009700976	1348.584513940333	500.311010375917	1042.883773912228	1424.416317434301	681.186152434123	984.544657806044	1477.895958044199	504.363630457790	1079.841298801387	928.579938641198	661.206317496719	1035.316250930251	941.647731014490	390.405687916365	1120.794969145316	727.991149981967	612.932266758895	1047.991750284200	610.338814679529	670.015294462198	1115.930106678900	565.627729448802	577.983420149341	1115.879070889762	468.682270907391	577.614454608329	1125.117464056134	760.498939988338	416.959767275920	1078.990293296313	634.942811114032	333.867766604823	1183.959018610704	571.446462848416	392.065660754240	1194.291080210593	481.730983804162	377.080541850207	1123.731260096266	418.122972480000	364.708207937270	977.053865631027	385.845433115550	321.705810961943	963.413424848447	250.462047919180	360.502879862974	1066.719573256253	383.349414660395	582.508676671714	982.607424397324	291.169357935051	646.907010794039	994.921668350957	195.320738422000	575.809666378784	829.604651715988	46.969289095912	552.738665617622	1002.789869652370	96.052036956519	582.486273229083	915.071301382286	38.748210973647	623.833867340291	1122.761703288210	40.191925324549	607.194869465432	774.323694614690	196.589074538248	407.732409156149	819.254064046807	152.124684490782	318.833270297375	926.719607900856	147.285593221039	329.790798107188	989.541311157820	33.502891231918	285.088064983757	906.925723117660	1055.817781943146	264.184461299008	906.097250971932	794.987468041095	283.418096981900	1113.733019147056	1083.973921204116	818.546047693720	1299.363505034700	907.546730895492	781.519382375304	
107	57.312285714286	837.823628727391	987.619464041170	572.262424238321	983.312082338028	1409.871375274912	351.140738496655	1105.961230917591	1349.624669587205	500.634429957460	1045.720450801505	1425.242388156911	682.703332266092	983.962840940452	1478.750339577722	506.882241907232	1080.776449089232	928.673479790736	661.466407085800	1033.168824171652	942.927350267115	391.398030198879	1119.943882588427	727.545606917563	613.317029764087	1046.721860495190	610.380676116175	670.779032650022	1113.739502010657	565.386331604507	578.237459152258	1113.155951824650	468.526227170289	577.795771071749	1125.098766156438	764.265900827267	419.046335658428	1081.427837541968	637.869674920878	335.879709630394	1187.059811307433	576.018196734049	394.724031277574	1199.153393118446	486.523146924408	379.394965303738	1130.058553569700	421.689786666444	366.943939100554	984.114977938847	385.720399187965	325.359931032833	975.029437825476	250.062258848832	363.616416980036	1063.666770657360	383.418993307984	582.834875143914	979.519535531584	291.440275498943	647.458094814886	991.178326596408	195.652745047681	576.188490832640	825.227680167063	47.802973975785	553.131805679117	998.610250121896	96.134698453807	582.757042173107	910.738341979808	39.069396304580	624.109509226082	1118.371951371636	39.949950507306	607.252883914987	788.857348019334	189.691908994312	412.734203343328	833.911290779306	148.420746424840	322.529358694900	941.197609935332	147.030143337930	332.415446386015	1006.980724542634	34.914321530378	284.767294025850	891.275615201592	1060.934754759119	268.091160886511	880.319742165817	800.834603812518	291.310743921197	1131.223506637098	1088.958274388314	819.679670380598	1332.120080980361	932.830235417788	774.515705131189	
108	57.334571428571	838.068239599340	989.513025108949	575.557418928389	980.443753030833	1412.082129799004	353.743405871049	1105.757695247928	1351.299883871703	500.777782727170	1048.755695462148	1426.619627526475	684.013373846900	983.502346636963	1480.223126819997	509.389965898057	1081.717009244390	929.240525685084	661.212312644035	1031.026740173683	944.951234599834	391.928615930818	1118.564246700969	727.388650265465	613.357578066481	1044.709149423266	610.920359487238	671.408765211211	1110.646581294353	565.427174414881	578.429278923699	1109.387628949953	468.817446884940	578.042916727028	1124.098480769926	767.847635934870	420.485593982386	1081.962044695054	640.833930606186	337.460413343489	1187.836517069323	580.150455330396	396.818517066708	1201.547156868876	491.264643020646	381.269864018484	1134.611515544993	425.157287160257	368.720093524648	990.363017005764	383.803021863357	328.021183551261	987.270832420669	248.078089015902	365.969736291979	1059.809443674598	383.932875456339	583.254893103884	975.822220466573	291.992564379143	648.091596047832	987.110126028073	196.269382635405	576.670348804462	820.830882304544	48.757046170433	553.595604919688	994.432669970110	96.234591837854	583.064247260764	906.403523142807	39.436980647377	624.432814102176	1113.968990851198	39.735197052766	607.301511802152	805.034558288723	178.665681498014	416.198851932639	851.148117999385	141.308609160781	325.083277497762	957.826645002662	145.155917356523	334.414218121651	1028.425645401153	36.617661322382	284.593092172244	876.422601986518	1067.223946260414	271.963832209825	857.163973657474	808.237137030235	299.141358619128	1148.428752167567	1095.083369218131	819.975460939626	1362.331385680165	960.838270890315	766.497996303063	
109	57.356857142857	838.386397222235	991.995640155701	578.474894236890	977.793854695407	1414.957733296010	356.270317051782	1105.689777226366	1353.456210873264	500.754564650407	1051.955775052154	1428.417031411555	685.111262441070	983.180316946396	1482.177847145253	511.874650579647	1082.629887068923	930.176828121897	660.496600513634	1028.865419257751	947.566136702769	392.033677397942	1116.718268421570	727.472246585813	613.069011709441	1042.080557217368	611.864478470768	671.903882192107	1106.801557575826	565.700011575730	578.549774062518	1104.750453294979	469.480536783710	578.337974981154	1122.212164319719	771.117514994402	421.280082502024	1080.745383587840	643.680578755220	338.575532447232	1186.488050735754	583.700966013144	398.323415808374	1201.687536767943	495.813689084490	382.693045926578	1137.560738417188	428.425800482409	370.014044410253	996.061562697053	380.253994943848	329.505204677666	1000.117817269862	244.775926293218	367.440592718993	1055.289709354541	384.808803772078	583.746025796014	971.616860526807	292.773656421164	648.779797317630	982.774149604271	197.112849893573	577.226898690927	816.420719128070	49.799262405178	554.111072444692	990.251140150992	96.338823082226	583.385089902372	902.066186603222	39.836652243303	624.788977696370	1109.554280832971	39.542314591630	607.342988130193	822.798097542988	164.389647148819	417.840499909976	870.826067796984	131.444003290277	326.302968440916	976.405870450839	141.925448154623	335.686612954349	1053.281619587608	38.608075647577	284.663256015239	862.701788079938	1074.353200031920	275.817762760481	836.673048567135	816.609180720918	306.809027969604	1165.274977606419	1102.127863579696	819.416837307257	1389.637788968355	990.874913745742	757.683777314625	
